<svg xmlns="http://www.w3.org/2000/svg" width="192" height="192" viewBox="0 0 192 192" role="img" aria-label="Adapsys AusPac">
  <defs>
    <linearGradient id="bg" x1="0" x2="1" y1="0" y2="1">
      <stop offset="0%" stop-color="#00b8b8"/>
      <stop offset="100%" stop-color="#006379"/>
    </linearGradient>
  </defs>
  <rect width="192" height="192" rx="38" fill="url(#bg)"/>
  <circle cx="145" cy="46" r="16" fill="#ef2b97" opacity="0.9"/>
  <path d="M52 128V62h24c11 0 20 8 20 20 0 12-9 20-20 20H68v26H52zm16-40h8c5 0 8-3 8-6 0-4-3-7-8-7h-8v13z" fill="#ffffff"/>
  <path d="M102 128V62h17l21 37V62h16v66h-16l-22-38v38h-16z" fill="#ffffff"/>
</svg>
